<?xml version="1.0" encoding="utf-8"?>
<!-- Generator: Adobe Illustrator 18.1.1, SVG Export Plug-In . SVG Version: 6.00 Build 0)  -->
<!-- Congrats! You found the hidden clue.  

https://youtu.be/5Ib1PMJnuMY


                             RRRR
                           RRRRRRRR     R
                         RRRR/%%%%%%\RRRRR
                        RRRR/%%%%%%%%\RRRRR
                    R  RRRR/%%%%/RRR\%\RRRRR
                     RRRRR/%%%/RR/%\RR\\RRRRR
                     RRRR/%%/RR/%%%%%%%%\RRRRRR
                      RR/%%%IRI%%%/&&/%%%IRRRRRRR
                      RRI%%%IRI&&&&&/%%%%IRRRRR
                    %%IRI%%%\RI&&/%I&&&\%IRRRR
                   %%%%I%%%%%%%%%%I&I%I&I&IRR
                      %%%%%%%%%%%%I/%%I/&IRR
                       %%%%%%%%%%%%%/RRR\%%%
                       %%%%%%%%%%%/RRRRRR\%%
                        %%%%%%%%%/RRRRRRRI%
                         %%%%%%%/RRRRR/%%%%
                          %%%%%/RRR/%%%%%%
                           %%%/R/%%%%%%%%%
                            %%%%I%%%%%%%%
                            @@%%I%%%%%%@
                           @@@@@@@@@@@@@@@
                          @@@ @@@@@@@@ @@@@
                          @   @@@@@ @@  @@
                              @@@88  @   @
                              @  88
                                 88_/
                                 88/
                        @@@      88
                      @@@@@@@    88
                          @@@@@  88
                           @@@@\_88
                            @@@@\88            @
                            @@@@@88            @
                            @@@@@88            @@
                            @@@@@88            @@
                            @I@@@88           @@@
                            @I@@@88__/       @@@@
                            @I@@@88//       @@@@@
                            @I@@@@8/      @@@@@@@
                            @I@@@@8     @@@@@@@@@
                            @\@@@@8   @@@@@@@@@@@
                             @@@@@8 @@@@@@@@@@@@
                              @@@88@@@@@@@@@@@@@
                               @@8@@@@@@I@@@@@@
                               @@/@@@@@@I@@@@@@
                              @@/@@@@@@@/@@@@@
                             @@/@@@@@@@/@@@@@@
                           @@@/@@@@@@@/@@@@@@
                           @@/@@@@@@@/@@@@@@@
                           @@I@@@@@@/@@@@@@@
                            @I@@@@@/@@@@@@@@
                            @I@@@@/@@@@@@@@
                            @\@@@/@@@@@@@@@
                             @I@/@@@@@@@@@
                             @I/@@@@@@@@@@
                              I@@@@@@@@@@
                              @@@@@@@@@@@
                            @@@@@@@@@@@@
                           @@@@@@@@@@@@@
                           @@@@@@@@@@@
                            @@@@@@@@
                             @@@@@@
                              @@88
                               @88
                                888
                                 888
                                  888
                                 \_888
                                  \\888
                                   \\888
                                    \888
                                     888
                                     888__/
                                     888//
                                      888
                                       888
                                        888
                                         888
                                        \_888
                                         \\888
                                           \888
                                             888
                                             8888
                                              8888     PAUL
                                               8888    STEFFENHAGEN
                                                8888


There are three main ways to explore the ROSECODE universe: 

	#1) Read the stories.
	#2) Create your own stories, games, and comics, based on the ROSECODE franchise. Email rosecode@protonmail.com for specific guidelines to get your content approved for use and publication.
	#3) Play a character in the online ROSECODE game, using the NARROWS platform. 

	Please note, this game is invitation-only. Follow the link to begin...

	https://narrows.hcoder.org/novels/8a227bbb-f3fd-4d10-b157-5f13eeb14f25/chapters/0


That's all!

I 'm sorry. Were you expecting something more?


"Trace one mark for knowledge, two more down for sin /
I know there's another way in"

https://youtu.be/5TFuYJvcrcs



	

    						  /_)
                            (8_))}-  .
                              \_)      '.
                                 . -.    .
                , .-.-,_,       :    '. .'
                )`-.>'` (        '- -'`;
               /     `\  |             .
               |       | |          _.'
                \     / /         .'
                `=(\ /.=`         '
                 `-;`.-'           '._
                   `)|     ,           ` ' ' '   '  '
                    ||  .-'|
                  ,_||  \_,/
            ,      \|| .'
            |\|\  , ||/
           ,_\` |/| |Y_,
            '-.'-._\||/
               >_.-`Y|
              `   ,_||
                   \||
                    ||
               jgs  ||
                    |/


-->
<svg version="1.1" id="Layer_1" xmlns="http://www.w3.org/2000/svg" xmlns:xlink="http://www.w3.org/1999/xlink" x="0px" y="0px"
	 viewBox="0 0 488.8 427.1" enable-background="new 0 0 488.8 427.1" xml:space="preserve">
<path fill="#FFFFFF" d="M0.1,244.9c1.7,24.5,5.3,48.1,18.2,70.3c15.8,27.1,35.3,51.2,60.8,68.2c40.8,27.1,86.5,42.3,136.1,43.6
	c17.2,0.4,34.4-0.9,51.6-0.5c5.1,0.1,10.3,2.5,10.9-4.8c0.5-6.4,1.7-13.6-6.6-17.2c-14-6-28.3-11.7-41.8-18.9
	c-25.7-13.6-52-26.5-75.9-42.8c-28.3-19.3-55.9-40.4-75.7-69.3C67,258,55.5,242.4,47.9,225.3c-7.1-16-9.6-34.2-14.4-51.3
	c-0.7-2.6-3-4.8-4.5-7.2c-2.5,1.9-6.1,3.2-7.5,5.7C9,195-1.2,218.2,0.1,244.9z"/>
<path fill="#FFFFFF" d="M63.6,125.6c-4.5,22.1,14.8,32.8,22.2,49c0.6,1.3,4.7,1.4,7.2,1.6c24.9,1.3,49.8,2.5,74.6,3.9
	c3.2,0.2,6.9,0.8,9.5,2.5c11,7,21.4,14.8,32.6,21.5c4.6,2.8,10.4,3.5,15.7,5.1c1.8-6.2,5.5-12.4,5.2-18.5
	c-0.9-15.6-9.3-28.1-20.8-38.4c-16.4-14.7-32.6-29.7-49.5-43.9c-17.4-14.7-35.3-28.7-53.3-42.5c-2.5-1.9-8.6-2.7-10.9-1
	C75.6,80,68.3,102.4,63.6,125.6z"/>
<path fill="#FFFFFF" d="M328,395.4c3.5-0.7,9.8-1.6,15.9-3.1c19.5-5,39.1-9.6,58.3-15.5c16.1-4.9,31.7-11.3,47.4-17.4
	c1.8-0.7,2.4-4.3,3.7-6.5c1.5-2.5,2.7-5.4,4.8-7.1c14.7-12.6,21.1-29.5,21.3-47.7c0.2-14.8-3.1-30-15.2-40.9
	c-2.7-2.5-8.2-5.5-10.3-4.4c-3.8,2-8.6,7.2-8.4,10.7c1,14.4-9.6,21.9-17.4,30.1c-30.6,32-71.2,48.1-110.7,65.1
	c-14.7,6.3-31.8,7-47.4,11.6c-6,1.8-10.9,7.2-16.3,10.9c5.2,3.4,10.1,8.9,15.7,9.7C287.9,393.2,306.6,393.9,328,395.4z"/>
<path fill="#FFFFFF" d="M426.5,66.6c-10-9-20.7-17.2-31.9-24.6c-2.8-0.9-5.5-2-8-3.3c-7.6-4-14.6-9.3-22.4-13.2c-2-1-16.8-6.8-6-2.9
	c-3.5-1.3-7-2.7-10.6-3.9c-8.3-2.9-16.8-5.3-25.3-7.4c-8.5-2.1-17.1-3.9-25.7-5.5c-3.7-0.7-7.3-1.3-11-1.9c-2.1-0.3-4.3-0.7-6.5-1
	c-0.4,0-0.8-0.1-1.2-0.1c-14.6-1.4-29.3-2-43.9-2.8c-17.8,6.2-65.4,15.8-64.7,38c0.7,23,139.9,0.5,158.2,52.6
	c-26.9-3.7-56-20.5-82,1.6c-12.5,10.6-19.3,12.3-4.1,24.4c20.9,16.7,44.8-7.3,43.1,27.9c-1.1,22.4-19.4,11.9-7.9,41
	c-40.1,8.8,31.4,51.5,39.3,77.5c-31.5,6.1-61.8-2.4-90.6-15.7c-17.2-7.9-58.2-49-74.7-49.9c-51.1-2.7,11.5,92.4,29.3,107.1
	c24.8,20.5,54.8,30.8,87,28.7c28.1-1.8,39.5-6.4,59.8-21.1c16.8-12.2,30.2-24.2,31.3-44.7c0.3-5.2-14.4-3.1-15-6.9
	c-1.3-8.3,6.9-26.8,9.8-36.5c-3-0.2-6-0.4-8.9-0.6c0.1-0.7,0.1-1.2,0.2-1.7c5.2-40.1,53.3,69.3,51.6,67.7
	c29,25.9,43.2-37.2,39.4-58.4c-3.4-18.7-29.7-62.5-46.4-76.1c-31.1-25.3-59.3-2.1-51.7-57.7c19.5-2.5,48,29,59.2,41.3
	c30.6,33.5,45.5,64.4,61.7,106.3C524.4,203.5,469.3,105,426.5,66.6z"/>
<path fill="#FFFFFF" d="M0.1,244.9c-1.3-26.8,8.9-50,21.4-72.4c1.4-2.5,4.9-3.8,7.5-5.7c1.5,2.4,3.8,4.6,4.5,7.2
	c4.8,17.1,7.2,35.2,14.4,51.3c7.6,17.1,19.1,32.7,29.8,48.3c19.8,28.9,47.4,50,75.7,69.3c23.9,16.3,50.3,29.2,75.9,42.8
	c13.5,7.2,27.8,12.8,41.8,18.9c8.4,3.6,7.1,10.8,6.6,17.2c-0.6,7.3-5.7,4.9-10.9,4.8c-17.2-0.4-34.4,0.9-51.6,0.5
	c-49.5-1.3-95.3-16.5-136.1-43.6c-25.5-17-45.1-41-60.8-68.2C5.4,293.1,1.8,269.4,0.1,244.9z"/>
<path fill="#FFFFFF" d="M63.6,125.6c4.8-23.2,12.1-45.6,32.5-60.8c2.2-1.7,8.3-0.9,10.9,1c18.1,13.8,36,27.9,53.3,42.5
	c16.9,14.2,33.1,29.2,49.5,43.9c11.5,10.3,19.9,22.8,20.8,38.4c0.4,6-3.3,12.3-5.2,18.5c-5.3-1.6-11.1-2.3-15.7-5.1
	c-11.1-6.7-21.6-14.5-32.6-21.5c-2.7-1.7-6.3-2.3-9.5-2.5c-24.9-1.4-49.8-2.5-74.6-3.9c-2.5-0.1-6.5-0.2-7.2-1.6
	C78.4,158.4,59.1,147.6,63.6,125.6z"/>
<path fill="#FFFFFF" d="M328,395.4c-21.4-1.5-40.1-2.2-58.6-4.6c-5.6-0.7-10.5-6.3-15.7-9.7c5.4-3.8,10.3-9.2,16.3-10.9
	c15.6-4.6,32.7-5.3,47.4-11.6c39.5-17,80.1-33.1,110.7-65.1c7.8-8.2,18.4-15.7,17.4-30.1c-0.2-3.5,4.6-8.7,8.4-10.7
	c2.1-1.1,7.5,1.9,10.3,4.4c12,10.9,15.3,26,15.2,40.9c-0.2,18.3-6.6,35.2-21.3,47.7c-2.1,1.8-3.3,4.7-4.8,7.1
	c-1.3,2.2-1.9,5.8-3.7,6.5c-15.7,6.2-31.3,12.5-47.4,17.4c-19.2,5.9-38.8,10.5-58.3,15.5C337.8,393.8,331.5,394.7,328,395.4z"/>
</svg>
